<?xml version="1.0" standalone="no"?><!DOCTYPE svg PUBLIC "-//W3C//DTD SVG 1.1//EN" "http://www.w3.org/Graphics/SVG/1.1/DTD/svg11.dtd"><svg t="1578208960265" class="icon" viewBox="0 0 1024 1024" version="1.1" xmlns="http://www.w3.org/2000/svg" p-id="1432" xmlns:xlink="http://www.w3.org/1999/xlink" width="200" height="200"><defs><style type="text/css"></style></defs><path d="M853.333333 170.666667v426.666666H640V170.666667h213.333333m42.666667-42.666667H597.333333v512h298.666667V128zM469.333333 640v213.333333H170.666667V640h298.666666m42.666667-42.666667H128v298.666667h384V597.333333zM746.666667 725.333333v128h-149.333334v42.666667h192v-170.666667h-42.666666zM320 185.813333a126.08 126.08 0 0 0 42.666667 14.933334 62.08 62.08 0 0 1 8.32 1.92c2.56 0 11.733333 5.333333 22.826666 29.013333l12.8 26.666667 29.013334-2.346667h2.986666A30.293333 30.293333 0 0 1 469.333333 282.666667a31.786667 31.786667 0 0 1-21.333333 27.52l-23.68 9.813333-2.773333 25.6a92.16 92.16 0 0 1-10.88 34.986667C385.066667 426.666667 322.56 426.666667 320 426.666667s-64 0-90.666667-46.506667a92.16 92.16 0 0 1-10.88-34.986667L215.68 320 192 310.186667a31.786667 31.786667 0 0 1-21.333333-27.52A30.293333 30.293333 0 0 1 201.386667 256h2.986666l29.44 2.56 12.8-26.666667c11.093333-23.68 20.266667-28.16 22.826667-29.013333a62.08 62.08 0 0 1 7.893333-2.133333 126.08 126.08 0 0 0 42.666667-14.933334M320 128a70.4 70.4 0 0 1-16 17.066667 120.106667 120.106667 0 0 1-48 17.066666A87.253333 87.253333 0 0 0 208 213.333333h-6.613333A73.173333 73.173333 0 0 0 128 281.6a73.813333 73.813333 0 0 0 48 68.266667A136.32 136.32 0 0 0 192 401.066667c37.546667 66.986667 120.746667 68.266667 128 68.266666s90.453333-1.28 128-68.266666a136.32 136.32 0 0 0 16-51.2A73.813333 73.813333 0 0 0 512 281.6a73.173333 73.173333 0 0 0-73.386667-68.266667h-6.613333A87.253333 87.253333 0 0 0 384 162.133333a120.106667 120.106667 0 0 1-48-17.066666A70.4 70.4 0 0 1 320 128zM170.666667 554.666667h42.666666v42.666666H170.666667zM298.666667 554.666667h42.666666v42.666666h-42.666666zM426.666667 554.666667h42.666666v42.666666h-42.666666z" p-id="1433" fill="#ffffff"></path></svg>