<?xml version="1.0" standalone="no"?><!DOCTYPE svg PUBLIC "-//W3C//DTD SVG 1.1//EN" "http://www.w3.org/Graphics/SVG/1.1/DTD/svg11.dtd"><svg t="1578276313456" class="icon" viewBox="0 0 1024 1024" version="1.1" xmlns="http://www.w3.org/2000/svg" p-id="6305" xmlns:xlink="http://www.w3.org/1999/xlink" width="48" height="48"><defs><style type="text/css"></style></defs><path d="M814.677333 540.074667c-5.802667 62.464-30.549333 119.466667-68.352 165.205333l147.968 147.968c75.264-84.053333 123.136-193.109333 129.706667-313.088H814.677333z" fill="#16BCB4" p-id="6306"></path><path d="M706.048 745.472a302.071467 302.071467 0 0 1-165.205333 68.352c-9.386667 0.853333-18.858667 1.365333-28.501334 1.365333s-19.114667-0.512-28.501333-1.365333c-62.464-5.802667-119.466667-30.549333-165.205333-68.352L170.837333 893.44c84.053333 75.264 193.109333 123.136 313.088 129.706667 9.386667 0.512 18.944 0.853333 28.501334 0.853333s19.029333-0.341333 28.501333-0.853333c120.064-6.570667 229.034667-54.528 313.088-129.706667L706.048 745.472z" fill="#2664A6" p-id="6307"></path><path d="M170.837333 129.706667a512.503467 512.503467 0 0 0-40.277333 40.277333C55.296 254.037333 7.424 363.093333 0.853333 483.157333c-0.512 9.386667-0.853333 18.858667-0.853333 28.416s0.341333 19.029333 0.853333 28.501334c6.570667 120.064 54.528 229.034667 129.706667 313.088l147.968-147.968a302.071467 302.071467 0 0 1-68.352-165.205334c-0.853333-9.386667-1.365333-18.858667-1.365333-28.501333s0.512-19.114667 1.365333-28.501333c5.802667-62.464 30.549333-119.466667 68.352-165.205334 12.117333-14.677333 25.6-28.16 40.277333-40.277333a302.071467 302.071467 0 0 1 165.205334-68.352V0c-120.149333 6.570667-229.12 54.528-313.173334 129.706667z" fill="#6894D6" p-id="6308"></path><path d="M894.293333 169.984a512.503467 512.503467 0 0 0-40.277333-40.277333C769.962667 54.528 660.906667 6.570667 540.842667 0v209.322667c62.464 5.802667 119.466667 30.549333 165.205333 68.352 14.677333 12.117333 28.16 25.6 40.277333 40.277333a302.071467 302.071467 0 0 1 68.352 165.205333H1024c-6.570667-120.064-54.528-229.12-129.706667-313.173333z" fill="#3EA0D0" p-id="6309"></path></svg>